# xmcd
#
# Track frame offsets:
#	150
#	52572
#	105598
#	161860
#
# Disc length: 2742 seconds
# Revision: 1
# Processed by: cddbd v1.5.2PL0 Copyright (c) Steve Scherf et al.
# Submitted via: dBpowerAMP V12.0
#
DISCID=250ab404
DTITLE=Lester Levenson - The Ultimate Goal Vol 02 CD 02
DYEAR=2000
DGENRE=Home Study
TTITLE0=The Source of All Intelligence pt 1
TTITLE1=The Source of All Intelligence pt 2
TTITLE2=The Source of All Intelligence pt 3
TTITLE3=The Source of All Intelligence pt 4
EXTD=
EXTT0=
EXTT1=
EXTT2=
EXTT3=
PLAYORDER=
